<svg fill="#000000" height="200px" width="200px" version="1.1" id="Layer_1" xmlns="http://www.w3.org/2000/svg"
    xmlns:xlink="http://www.w3.org/1999/xlink" viewBox="0 0 512 512" xml:space="preserve">
    <g id="SVGRepo_bgCarrier" stroke-width="0"></g>
    <g id="SVGRepo_tracerCarrier" stroke-linecap="round" stroke-linejoin="round"></g>
    <g id="SVGRepo_iconCarrier">
        <g>
            <g>
                <path
                    d="M127.485,348.527c-1.398,0-2.78,0.51-3.882,1.428c-3.697,2.939-7.008,4.139-11.429,4.139 c-8.652,0-15.175-7.09-15.175-16.49v-0.155c0-9.313,6.524-16.335,15.175-16.335c3.882,0,7.295,1.196,10.777,3.785 c0.945,0.601,2.097,1.241,3.838,1.241c3.529,0,6.4-2.836,6.4-6.322c0-2.388-1.306-4.218-2.531-5.138 c-5.147-3.816-10.995-5.593-18.406-5.593c-16.388,0-28.747,12.259-28.747,28.515v0.155c0,16.169,12.159,28.361,28.283,28.361 c8.06,0,14.105-2.138,19.594-6.931c1.394-1.194,2.193-2.889,2.193-4.65C133.575,351.28,130.787,348.527,127.485,348.527z">
                </path>
            </g>
        </g>
        <g>
            <g>
                <path
                    d="M181.303,353.321h-21.516v-37.29c0-3.632-2.845-6.476-6.476-6.476c-3.632,0-6.477,2.845-6.477,6.476v42.685 c0,3.632,2.845,6.476,6.477,6.476h27.993c3.329,0,5.936-2.607,5.936-5.935C187.239,355.928,184.632,353.321,181.303,353.321z">
                </path>
            </g>
        </g>
        <g>
            <g>
                <path
                    d="M222.441,309.089c-16.467,0-29.366,12.525-29.366,28.515v0.155c0,16.169,12.559,28.361,29.211,28.361 c16.467,0,29.366-12.525,29.366-28.515v-0.155C251.651,321.282,239.094,309.089,222.441,309.089z M238.157,337.759 c0,9.313-6.756,16.335-15.716,16.335c-9.048,0-15.871-7.09-15.871-16.49v-0.155h-0.001c0-9.313,6.756-16.335,15.717-16.335 c9.048,0,15.871,7.09,15.871,16.49V337.759z">
                </path>
            </g>
        </g>
        <g>
            <g>
                <path
                    d="M287.293,331.762c-9.385-2.404-11.284-3.516-11.284-6.608V325c0-2.547,2.527-4.194,6.438-4.194 c3.396,0,7.027,1.165,11.103,3.564c1.094,0.637,2.106,0.922,3.279,0.922c3.416,0,6.091-2.642,6.091-6.012 c0-2.558-1.491-4.347-2.871-5.159c-5.096-3.235-10.966-4.875-17.447-4.875c-11.463,0-19.468,6.924-19.468,16.839v0.155 c0,11.463,7.945,14.403,18.333,17.055c9.05,2.321,10.511,3.78,10.511,6.376v0.155c0,2.868-2.724,4.581-7.288,4.581 c-4.744,0-9.17-1.56-13.542-4.777c-1.131-0.792-2.342-1.177-3.701-1.177c-3.416,0-6.091,2.642-6.091,6.012 c0,1.957,0.944,3.839,2.46,4.909c5.922,4.252,13.253,6.594,20.642,6.594c12.581,0,20.396-6.63,20.396-17.302v-0.155 C304.852,338.408,297.834,334.509,287.293,331.762z">
                </path>
            </g>
        </g>
        <g>
            <g>
                <path
                    d="M354.901,353.553H330.91V343.23h20.124c3.23,0,5.858-2.593,5.858-5.78c0-3.23-2.628-5.858-5.858-5.858H330.91v-9.936 h23.604c3.23,0,5.858-2.593,5.858-5.78c0-3.23-2.628-5.858-5.858-5.858h-30.003c-3.632,0-6.477,2.845-6.477,6.477v42.221 c0,3.632,2.845,6.476,6.477,6.476h30.39c3.23,0,5.858-2.593,5.858-5.78C360.758,356.181,358.131,353.553,354.901,353.553z">
                </path>
            </g>
        </g>
        <g>
            <g>
                <path
                    d="M395.341,310.017h-15.155c-3.632,0-6.477,2.845-6.477,6.477v42.221c0,3.632,2.845,6.476,6.477,6.476h15.156 c16.971,0,29.288-11.603,29.288-27.587v-0.155C424.63,321.555,412.313,310.017,395.341,310.017z M411.135,337.759 c0,9.354-6.347,15.639-15.794,15.639h-8.68v-31.587h8.68c9.447,0,15.794,6.347,15.794,15.794V337.759z">
                </path>
            </g>
        </g>
        <g>
            <g>
                <path
                    d="M44.931,225.987c-11.393,0-20.661,9.268-20.661,20.661s9.269,20.661,20.661,20.661c11.393,0,20.661-9.268,20.661-20.661 S56.323,225.987,44.931,225.987z M44.931,251.635c-2.75,0-4.987-2.237-4.987-4.987c0-2.75,2.238-4.987,4.987-4.987 c2.75,0,4.987,2.237,4.987,4.987C49.918,249.398,47.681,251.635,44.931,251.635z">
                </path>
            </g>
        </g>
        <g>
            <g>
                <path
                    d="M468.114,225.987c-11.393,0-20.661,9.268-20.661,20.661s9.268,20.661,20.661,20.661c11.393,0,20.661-9.268,20.661-20.661 C488.775,235.256,479.507,225.987,468.114,225.987z M468.114,251.635c-2.75,0-4.987-2.237-4.987-4.987 c0-2.75,2.237-4.987,4.987-4.987s4.987,2.237,4.987,4.987S470.864,251.635,468.114,251.635z">
                </path>
            </g>
        </g>
        <g>
            <g>
                <path
                    d="M44.931,410.933c-11.393,0-20.661,9.268-20.661,20.661c0,11.393,9.268,20.661,20.661,20.661s20.661-9.268,20.661-20.661 C65.591,420.202,56.323,410.933,44.931,410.933z M44.931,436.581c-2.75,0-4.987-2.237-4.987-4.987s2.237-4.987,4.987-4.987 c2.75,0,4.987,2.237,4.987,4.987S47.681,436.581,44.931,436.581z">
                </path>
            </g>
        </g>
        <g>
            <g>
                <path
                    d="M468.114,410.933c-11.393,0-20.661,9.268-20.661,20.661c0,11.393,9.268,20.661,20.661,20.661 c11.393,0,20.661-9.268,20.661-20.661C488.775,420.202,479.507,410.933,468.114,410.933z M468.114,436.581 c-2.75,0-4.987-2.237-4.987-4.987s2.237-4.987,4.987-4.987s4.987,2.237,4.987,4.987S470.864,436.581,468.114,436.581z">
                </path>
            </g>
        </g>
        <g>
            <g>
                <path
                    d="M475.332,330.71H464.98v-32.292c0-7.859-5.004-14.823-12.451-17.33c-9.192-3.095-16.588-10.41-19.783-19.568 c-2.559-7.334-9.497-12.261-17.265-12.261H96.519c-7.768,0-14.706,4.928-17.265,12.262c-3.195,9.157-10.59,16.472-19.782,19.568 c-7.448,2.506-12.452,9.47-12.452,17.329v32.292H36.668c-4.328,0-7.837,3.509-7.837,7.837s3.509,7.837,7.837,7.837H47.02v36.575 c0,7.859,5.004,14.823,12.45,17.33c9.192,3.095,16.588,10.41,19.783,19.568c2.559,7.334,9.497,12.261,17.265,12.261h52.902 c4.328,0,7.837-3.509,7.837-7.837c0-4.328-3.509-7.837-7.837-7.837H96.519c-1.11,0-2.101-0.704-2.466-1.751 c-4.777-13.692-15.835-24.63-29.58-29.258c-1.064-0.358-1.778-1.353-1.778-2.475v-84.54c0-1.122,0.715-2.117,1.779-2.475 c13.745-4.628,24.802-15.566,29.579-29.257c0.366-1.048,1.357-1.752,2.467-1.752h318.962c1.11,0,2.101,0.704,2.466,1.751 c4.777,13.692,15.835,24.63,29.58,29.258c1.064,0.358,1.778,1.353,1.778,2.475v84.54c0,1.122-0.715,2.117-1.779,2.475 c-13.745,4.628-24.802,15.566-29.579,29.257c-0.366,1.048-1.357,1.752-2.467,1.752H184.947c-4.328,0-7.837,3.509-7.837,7.837 c0,4.328,3.509,7.837,7.837,7.837h230.534c7.768,0,14.706-4.928,17.265-12.262c3.195-9.157,10.59-16.472,19.782-19.568 c7.448-2.506,12.452-9.47,12.452-17.329v-36.575h10.353c4.328,0,7.837-3.509,7.837-7.837S479.66,330.71,475.332,330.71z">
                </path>
            </g>
        </g>
        <g>
            <g>
                <path
                    d="M488.49,202.239h-63.824L288.897,66.47c0.004-0.231,0.018-0.461,0.018-0.693c0-18.149-14.766-32.914-32.914-32.914 s-32.914,14.765-32.914,32.914c0,0.233,0.013,0.462,0.018,0.694L87.334,202.239H23.51c-12.964,0-23.51,10.546-23.51,23.51v229.878 c0,12.964,10.546,23.51,23.51,23.51h464.98c12.964,0,23.51-10.546,23.51-23.51V225.749 C512,212.786,501.454,202.239,488.49,202.239z M256,48.537c9.506,0,17.241,7.734,17.241,17.241 c0,9.506-7.734,17.241-17.241,17.241c-9.506,0-17.241-7.734-17.241-17.241C238.759,56.271,246.494,48.537,256,48.537z M496.327,455.627c0,4.322-3.515,7.837-7.837,7.837H23.51c-4.322,0-7.837-3.515-7.837-7.837V225.749 c0-4.322,3.515-7.837,7.837-7.837h307.722c4.328,0,7.837-3.509,7.837-7.837c0-4.328-3.509-7.837-7.837-7.837H109.499 L228.268,83.472c5.854,9.143,16.092,15.22,27.732,15.22c11.639,0,21.878-6.077,27.732-15.22L402.5,202.24h-37.831 c-4.328,0-7.837,3.509-7.837,7.837c0,4.328,3.509,7.837,7.837,7.837h123.82c4.322,0,7.837,3.515,7.837,7.837V455.627z">
                </path>
            </g>
        </g>
    </g>
</svg>